<?xml version="1.0" encoding="iso-8859-1"?>
<!-- Generator: Adobe Illustrator 26.3.1, SVG Export Plug-In . SVG Version: 6.00 Build 0)  -->
<!DOCTYPE svg PUBLIC "-//W3C//DTD SVG 1.1 Basic//EN" "http://www.w3.org/Graphics/SVG/1.1/DTD/svg11-basic.dtd" [
	<!ENTITY ns_extend "http://ns.adobe.com/Extensibility/1.0/">
	<!ENTITY ns_ai "http://ns.adobe.com/AdobeIllustrator/10.0/">
	<!ENTITY ns_graphs "http://ns.adobe.com/Graphs/1.0/">
	<!ENTITY ns_vars "http://ns.adobe.com/Variables/1.0/">
	<!ENTITY ns_imrep "http://ns.adobe.com/ImageReplacement/1.0/">
	<!ENTITY ns_sfw "http://ns.adobe.com/SaveForWeb/1.0/">
	<!ENTITY ns_custom "http://ns.adobe.com/GenericCustomNamespace/1.0/">
	<!ENTITY ns_adobe_xpath "http://ns.adobe.com/XPath/1.0/">
]>
<svg version="1.1" baseProfile="basic" id="Layer_1" xmlns:x="&ns_extend;" xmlns:i="&ns_ai;" xmlns:graph="&ns_graphs;"
	 xmlns="http://www.w3.org/2000/svg" xmlns:xlink="http://www.w3.org/1999/xlink" x="0px" y="0px" viewBox="0 0 63 64"
	 xml:space="preserve">
<metadata>
	<sfw  xmlns="&ns_sfw;">
		<slices></slices>
		<sliceSourceBounds  bottomLeftOrigin="true" height="57.3" width="58.7" x="2" y="4"></sliceSourceBounds>
	</sfw>
</metadata>
<g id="_x23_cecdccfb">
	<path fill="#CECDCC" d="M25.9,6.5c1.7-2.2,4.6-5.1,7.6-3.2c3.2,2.4,5.8,5.5,8.6,8.3c3.1,5.1,0.2,11.8,1.7,17.1
		c2.6-1.8,4.9-4.9,7.4-7.1c1.6-0.4,2.4,1.3,3.4,2.2c1.8,2.2,4,4,5.9,6.1c0.6,0.8,0.2,1.7-0.5,2.3c-4.4,4.4-8.8,8.8-13.2,13.2
		c-1.1,1.2-2.8,0.9-4.3,1.1C47.6,41.3,52.9,36.2,58,31c-2-2.1-3.7-4.6-6.2-6.2c-3.8,2.3-6.4,6.3-9.7,9.3c-0.7,0.6-1.1-0.6-0.9-1.2
		C41.1,27,41.4,21,41,15c-0.4-2.4-2.9-3.7-4.3-5.4c-1.8-1.6-3.2-4.1-5.8-4.4C29.1,5.1,27.4,5.8,25.9,6.5z"/>
</g>
<g id="_x23_fcfcfcfc">
	<path fill="#FCFCFC" d="M22.1,10.2c2.2-2.1,5.1-4.1,8.3-3.5c1.6,0.4,2.9,1.6,2.9,3.4c0.1,9.8,0,19.6,0.1,29.4
		c0.4,2.9,1.2,6,3.3,8.3c1.9,1.7,4.8,1.7,7.2,1c-3.5,3.6-7.1,7.1-10.6,10.7c-0.6,0.7-2.3,1-2.1-0.3c-0.1-11,0.2-22-0.1-33
		c-0.4-3.2-1.1-7.1-4.3-8.6c-2.7-1.1-5.9-0.7-8.2,1.1c-2.1,2-2.6,5-2.9,7.7c-0.4,5.3-0.1,10.6-0.2,15.8c-0.1,1-1.7,1.2-2.3,0.3
		c-3.5-3.5-7.1-7-10.5-10.6c-0.6-0.6-0.6-1.7,0.1-2.3C9,23.2,15.6,16.7,22.1,10.2z"/>
</g>
</svg>
