<?xml version="1.0" encoding="iso-8859-1"?>
<!-- Generator: Adobe Illustrator 26.3.1, SVG Export Plug-In . SVG Version: 6.00 Build 0)  -->
<!DOCTYPE svg PUBLIC "-//W3C//DTD SVG 1.1 Basic//EN" "http://www.w3.org/Graphics/SVG/1.1/DTD/svg11-basic.dtd" [
	<!ENTITY ns_extend "http://ns.adobe.com/Extensibility/1.0/">
	<!ENTITY ns_ai "http://ns.adobe.com/AdobeIllustrator/10.0/">
	<!ENTITY ns_graphs "http://ns.adobe.com/Graphs/1.0/">
	<!ENTITY ns_vars "http://ns.adobe.com/Variables/1.0/">
	<!ENTITY ns_imrep "http://ns.adobe.com/ImageReplacement/1.0/">
	<!ENTITY ns_sfw "http://ns.adobe.com/SaveForWeb/1.0/">
	<!ENTITY ns_custom "http://ns.adobe.com/GenericCustomNamespace/1.0/">
	<!ENTITY ns_adobe_xpath "http://ns.adobe.com/XPath/1.0/">
]>
<svg version="1.1" baseProfile="basic" id="Layer_1" xmlns:x="&ns_extend;" xmlns:i="&ns_ai;" xmlns:graph="&ns_graphs;"
	 xmlns="http://www.w3.org/2000/svg" xmlns:xlink="http://www.w3.org/1999/xlink" x="0px" y="0px" viewBox="0 0 63 64"
	 xml:space="preserve">
<metadata>
	<sfw  xmlns="&ns_sfw;">
		<slices></slices>
		<sliceSourceBounds  bottomLeftOrigin="true" height="62.3" width="62.3" x="0.5" y="0.9"></sliceSourceBounds>
	</sfw>
</metadata>
<g id="Page-1">
	<g id="Group-Copy">
		<circle id="Oval-2" fill-rule="evenodd" clip-rule="evenodd" fill="#929292" cx="51.1" cy="12.4" r="11.7"/>
		<circle id="Oval-2-Copy" fill-rule="evenodd" clip-rule="evenodd" fill="#929292" cx="12.1" cy="51.4" r="11.7"/>
		
			<linearGradient id="Oval_00000085251473666803811150000006951471455160322477_" gradientUnits="userSpaceOnUse" x1="-97.8051" y1="164.2881" x2="-97.8051" y2="163.2881" gradientTransform="matrix(59 0 0 -59 5801 9694)">
			<stop  offset="0" style="stop-color:#494949"/>
			<stop  offset="1" style="stop-color:#303030"/>
		</linearGradient>
		
			<circle id="Oval" fill-rule="evenodd" clip-rule="evenodd" fill="url(#Oval_00000085251473666803811150000006951471455160322477_)" cx="30.5" cy="30.5" r="29.5"/>
		<path id="G" fill-rule="evenodd" clip-rule="evenodd" fill="#FFFFFF" d="M32.5,30.2H45v1c0,2.3-0.3,4.3-0.8,6
			c-0.5,1.6-1.4,3.1-2.6,4.5c-2.8,3.2-6.4,4.7-10.7,4.7c-4.2,0-7.8-1.5-10.8-4.6c-3-3.1-4.5-6.7-4.5-11c0-4.4,1.5-8.1,4.6-11.1
			c3.1-3.1,6.8-4.6,11.2-4.6c2.4,0,4.6,0.5,6.6,1.4c2,1,3.9,2.5,5.8,4.7l-3.2,3.1c-2.5-3.3-5.5-4.9-9-4.9c-3.2,0-5.9,1.1-8,3.3
			c-2.2,2.2-3.2,4.9-3.2,8.1c0,3.4,1.2,6.1,3.6,8.3c2.3,2,4.7,3,7.3,3c2.2,0,4.3-0.8,6-2.3c1.8-1.5,2.8-3.3,3-5.5h-7.5V30.2z"/>
	</g>
</g>
</svg>
